<?xml version="1.0" encoding="UTF-8"?>
<svg width="148px" height="107px" viewBox="0 0 148 107" version="1.1" xmlns="http://www.w3.org/2000/svg" xmlns:xlink="http://www.w3.org/1999/xlink">
    <title>TinyInvoice_Logo_3</title>
    <g id="Page-1" stroke="none" stroke-width="1" fill="none" fill-rule="evenodd">
        <g id="Artboard" transform="translate(-429.000000, -350.000000)">
            <g id="TinyInvoice_Logo_3" transform="translate(429.000000, 350.000000)">
                <g id="Group" transform="translate(42.000000, 0.000000)" stroke="#7E7E7E" stroke-width="4">
                    <circle id="Oval" cx="31" cy="9" r="7"></circle>
                    <circle id="Oval-Copy-3" cx="32" cy="59" r="7"></circle>
                    <circle id="Oval-Copy" cx="53" cy="21" r="7"></circle>
                    <circle id="Oval-Copy-4" cx="9" cy="22" r="7"></circle>
                    <circle id="Oval-Copy-2" cx="53" cy="46" r="7"></circle>
                    <circle id="Oval-Copy-5" cx="10" cy="46" r="7"></circle>
                </g>
                <g id="Group-2" transform="translate(62.000000, 23.000000)" fill="#5CC6F8">
                    <circle id="Oval" cx="7.25" cy="3.25" r="3.25"></circle>
                    <circle id="Oval-Copy-7" cx="3.25" cy="11.25" r="3.25"></circle>
                    <circle id="Oval-Copy-9" cx="7.25" cy="18.25" r="3.25"></circle>
                    <circle id="Oval-Copy-6" cx="15.25" cy="3.25" r="3.25"></circle>
                    <circle id="Oval-Copy-8" cx="19.25" cy="11.25" r="3.25"></circle>
                    <circle id="Oval-Copy-10" cx="15.25" cy="18.25" r="3.25"></circle>
                </g>
                <path d="M9.3,100 L9.3,82.42 L15.24,82.42 L15.24,80.32 L0.84,80.32 L0.84,82.42 L6.78,82.42 L6.78,100 L9.3,100 Z M20.3,82.42 C21.26,82.42 22.01,81.76 22.01,80.83 C22.01,79.87 21.26,79.24 20.3,79.24 C19.34,79.24 18.59,79.87 18.59,80.83 C18.59,81.76 19.34,82.42 20.3,82.42 Z M21.5,100 L21.5,85.42 L19.04,85.42 L19.04,100 L21.5,100 Z M29.38,100 L29.38,89.44 C30.85,87.97 31.87,87.19 33.37,87.19 C35.29,87.19 36.13,88.36 36.13,91.09 L36.13,100 L38.59,100 L38.59,90.76 C38.59,87.04 37.21,85.06 34.15,85.06 C32.14,85.06 30.64,86.14 29.26,87.52 L29.17,87.52 L28.96,85.42 L26.92,85.42 L26.92,100 L29.38,100 Z M44.07,106.27 C47.01,106.27 48.51,104.08 49.53,101.2 L55.02,85.42 L52.62,85.42 L50.01,93.49 C49.62,94.78 49.2,96.28 48.78,97.6 L48.66,97.6 C48.21,96.25 47.7,94.75 47.25,93.49 L44.28,85.42 L41.73,85.42 L47.58,100.03 L47.25,101.11 C46.65,102.91 45.6,104.23 43.95,104.23 C43.59,104.23 43.14,104.11 42.84,104.02 L42.36,105.97 C42.84,106.15 43.41,106.27 44.07,106.27 Z M61.07,100 L61.07,80.32 L58.58,80.32 L58.58,100 L61.07,100 Z M69.19,100 L69.19,89.44 C70.66,87.97 71.68,87.19 73.18,87.19 C75.1,87.19 75.94,88.36 75.94,91.09 L75.94,100 L78.4,100 L78.4,90.76 C78.4,87.04 77.02,85.06 73.96,85.06 C71.95,85.06 70.45,86.14 69.07,87.52 L68.98,87.52 L68.77,85.42 L66.73,85.42 L66.73,100 L69.19,100 Z M89.67,100 L94.83,85.42 L92.4,85.42 L89.64,93.7 C89.22,95.14 88.74,96.61 88.32,97.99 L88.2,97.99 C87.75,96.61 87.27,95.14 86.85,93.7 L84.09,85.42 L81.54,85.42 L86.79,100 L89.67,100 Z M103.7,100.36 C107.27,100.36 110.45,97.57 110.45,92.74 C110.45,87.85 107.27,85.06 103.7,85.06 C100.13,85.06 96.95,87.85 96.95,92.74 C96.95,97.57 100.13,100.36 103.7,100.36 Z M103.7,98.32 C101.21,98.32 99.5,96.07 99.5,92.74 C99.5,89.38 101.21,87.1 103.7,87.1 C106.22,87.1 107.9,89.38 107.9,92.74 C107.9,96.07 106.22,98.32 103.7,98.32 Z M116.05,82.42 C117.01,82.42 117.76,81.76 117.76,80.83 C117.76,79.87 117.01,79.24 116.05,79.24 C115.09,79.24 114.34,79.87 114.34,80.83 C114.34,81.76 115.09,82.42 116.05,82.42 Z M117.25,100 L117.25,85.42 L114.79,85.42 L114.79,100 L117.25,100 Z M128.43,100.36 C130.17,100.36 131.82,99.67 133.14,98.5 L132.06,96.85 C131.16,97.66 129.99,98.32 128.64,98.32 C125.97,98.32 124.14,96.07 124.14,92.74 C124.14,89.38 126.06,87.1 128.7,87.1 C129.87,87.1 130.77,87.64 131.61,88.39 L132.87,86.77 C131.85,85.84 130.53,85.06 128.61,85.06 C124.86,85.06 121.59,87.85 121.59,92.74 C121.59,97.57 124.56,100.36 128.43,100.36 Z M142.13,100.36 C144.11,100.36 145.67,99.67 146.93,98.86 L146.06,97.24 C144.98,97.93 143.81,98.38 142.43,98.38 C139.64,98.38 137.75,96.4 137.57,93.31 L147.41,93.31 C147.47,92.95 147.5,92.41 147.5,91.9 C147.5,87.73 145.4,85.06 141.68,85.06 C138.35,85.06 135.14,87.97 135.14,92.74 C135.14,97.51 138.23,100.36 142.13,100.36 Z M145.34,91.54 L137.54,91.54 C137.84,88.66 139.7,87.01 141.74,87.01 C144.02,87.01 145.34,88.6 145.34,91.54 Z" id="TinyInvoice" fill="#6EC7F0" fill-rule="nonzero"></path>
            </g>
        </g>
    </g>
</svg>